# xmcd
#
# Track frame offsets:
#	150
#	11694
#	24857
#	36635
#	55310
#	64829
#	83272
#	97850
#	111115
#	124447
#	134978
#	143889
#	154842
#	167439
#	180922
#	192933
#	209036
#	220766
#
# Disc length: 3167 seconds
#
# Revision: 1
# Processed by: cddbd v1.5.2PL0 Copyright (c) Steve Scherf et al.
# Submitted via: audiograbber 1.83.01
#
DISCID=fe0c5d12
DTITLE=Various Artist - Ohrwürmer Country Hits
DYEAR=1900
DGENRE=Country
TTITLE0=Johnny Cash - Ring of Fire
TTITLE1=Lynn Anderson - Rose Garden
TTITLE2=Kenny Rogers - Reuben James
TTITLE3=Marty Robbins - El Paso City
TTITLE4=Dolly Parton - Release Me
TTITLE5=The Bellamy Brothers - If I Said You Have A Beautiful Body
TTITLE6=John Denver - Take Me Home Country Roads
TTITLE7=Patti Page - Tennesse Waltz
TTITLE8=Billy Jo Spears - Fever
TTITLE9=Roger Miller - King of the Road
TTITLE10=Dave Dudley - Keep On Truckin´
TTITLE11=Waylon Jennings - Big Mamou
TTITLE12=Charlie Pride - Help Me Make It Through The Night (live)
TTITLE13=Loretta Lynn - Coal Miners Daughter
TTITLE14=Tammy Wynette - Cry Cry Again
TTITLE15=Don Gibson - Green Green Gras Of Home
TTITLE16=Wanda Jackson - Sweet Dreams
TTITLE17=Lynn Anderson - Blue Bayou
EXTD=
EXTT0=
EXTT1=
EXTT2=
EXTT3=
EXTT4=
EXTT5=
EXTT6=
EXTT7=
EXTT8=
EXTT9=
EXTT10=
EXTT11=
EXTT12=
EXTT13=
EXTT14=
EXTT15=
EXTT16=
EXTT17=
PLAYORDER=
